<svg id="图层_1" data-name="图层 1" xmlns="http://www.w3.org/2000/svg" viewBox="0 0 3850 1200"><defs><style>.cls-1{fill:#040000;}.cls-2{fill:#de392e;}</style></defs><path class="cls-1" d="M2069.36,560.31q-19.76,18.26-48.89,34-49.4,26.34-127.43,44.59-48.4,11.14-100.76,19.25a909.78,909.78,0,0,1,89.4,60.8q110.13,85.62,159,172.27a5.63,5.63,0,0,1,1,3q0,9.1-12.84,19.25-9.37,7.59-17.28,7.61c-2.65,0-4.29-.85-4.94-2.54q-47.92-83.53-150.15-164-73.1-57.21-136.31-87.58-41.49,4.07-85.94,6.08-40,2-35.07,2-47.91,0-47.91-23.8,0-15.68,22.74-31.39,17.8-12.14,35.1-16.7a109.37,109.37,0,0,1,23.73-2.53q24.23,0,55.87,10.12A472.6,472.6,0,0,1,1746.54,634q131-12.68,220.49-42.09,52.89-17.24,79.1-37a62,62,0,0,0,10.38-9.13,56,56,0,0,0,12.85-36.51q0-21.28-12.85-42.59-43.5-72-133.93-107-76.11-28.89-174.95-28.9a590.58,590.58,0,0,0-64.74,3.55q-135.42,13.2-250.56,69-79.57,38.58-114.66,74.07-31.14,30.94-31.14,51.74,0,11.67,9.39,20.29a4,4,0,0,1,1.48,3.56c0,5.4-3.54,11.25-10.62,17.5s-13.41,9.38-19,9.38a8.67,8.67,0,0,1-5.43-1.52,36,36,0,0,1-12.35-27.9q0-29.4,37-70,49.89-54.26,141.25-99.4,170.4-83.67,338.32-83.68,76.05,0,143.73,18.74,107.65,29.4,165,100.83,30.61,38.52,30.62,72.46Q2105.91,525.85,2069.36,560.31ZM1536.44,692.74q2,9.63-13.83,22.27-9.88,8.1-15.8,8.11c-2.64,0-4.28-1.53-4.94-4.56q-14.82-60.75-14.81-109.86a304.32,304.32,0,0,1,4.44-52.65q1.49-6.07,11.36-15.19c6.58-6.08,12.18-9.44,16.79-10.13a5.66,5.66,0,0,1,4.94,1.27q2,1.79,1,5.32a277.5,277.5,0,0,0-3.95,47.59Q1521.63,631.49,1536.44,692.74Zm117.06-52.15q-26.19-7.59-44-7.59a96.36,96.36,0,0,0-17.29,1.52l-2,.51q6.42,5.57,28.15,6.57h1.48Q1636.69,641.6,1653.5,640.59Z"/><path class="cls-1" d="M2287.17,705.18a222.48,222.48,0,0,1-57.79,7.81q-43,0-71.12-18.73-35.07,13.66-62.23,13.66-24.21,0-43-11.13-6.93-4-6.91-21.77a79.87,79.87,0,0,1,11.77-41.52q15.21-24.79,43.69-35.94a141.32,141.32,0,0,1,51.54-10.13q23.05,0,41.22,8.61l8.34,14.68q.49,5.07.49,11.14v29.87q0,27.85,21.74,36.45a113,113,0,0,0,23.71,2.54q15.79,0,38.52-4.56c3.62-.67,5.43,2.08,5.43,8.29S2290.79,704.2,2287.17,705.18Zm-122.49-83.32q-5.44-13.67-31.61-13.67-14.33,5.07-28.15,20.25-11.85,26.85-11.85,34.43a34.2,34.2,0,0,0,1.48,9.62q3.94,13.66,20.25,13.67a34.81,34.81,0,0,0,5.92-.51q10.38-4.56,16.3-16.2,4-10.62,7.9-21.77,1-5.56,10.38-11.9T2164.68,621.86Z"/><path class="cls-1" d="M2417.31,738.81q-1.74,4.56-15.56,18.22-15.32,6.57-37-1-15.32-13.17-15.31-39.49,0-10.62,3.46-34.93c-.67-4.39-3.46-6.91-8.4-7.59q-25.18,6.57-38.52,6.58c-5.27,0-7.58-1-6.92-3q-.49-2-6.42-14.17-4-8.61-3.95-14.68a24.81,24.81,0,0,1,1.48-8.61q5.92-17.21,8.4-22.28,5.92-15.69,10.86-19.23,3-2,10.38-1,6.9,4.56,7.4,25.31.49,17.73,10.38,17.72a34.62,34.62,0,0,0,8.88-1.51q10.38-6.58,20.26-6.59a20.28,20.28,0,0,1,10.86,3q7.41,4.54,7.41,15.69a102.42,102.42,0,0,1-.74,10.38c-.5,4.56-.74,7.85-.74,9.88q-2.47,19.72-2.47,24.8,0,18.72,10.87,27.34,3,3,9.38,3a51,51,0,0,0,5.93-.51,50.78,50.78,0,0,1,5.43-.51q6.42,0,6.42,5.57A22.42,22.42,0,0,1,2417.31,738.81Z"/><path class="cls-1" d="M2655.12,688.18c-.67,6.08-3.95,10.47-9.88,13.16s-11.85,5.24-17.78,7.6q-55.82,13.15-88.41,13.16a156.26,156.26,0,0,1-36.55-4q-29.14-7.11-49.88-22.79-24.7-18.72-24.7-42a54.8,54.8,0,0,1,3-17.47q3-8.84,11.35-20,7.43-9.62,14.33-19.25,10.36-3,21-6.57a60.93,60.93,0,0,1,19-3.55,38.62,38.62,0,0,1,17.78,4.56q14.33,12.66,14.33,31.39,0,24.81-32.6,59.74,6.91,14.17,34.57,20.75a109.33,109.33,0,0,0,28.15,3.55q39.51,0,80.51-24.3Q2652.15,682.11,2655.12,688.18Zm-161.51-73.91q-1.49-8.61-8.4-8.61-5.92,0-13.33,14.68-2.48,30.88,3.95,39.49,1.49.51,6.91-4.05A66.83,66.83,0,0,0,2493.61,614.27Z"/><path class="cls-1" d="M3061.1,362.15a160.37,160.37,0,0,1,4.94,40,187.62,187.62,0,0,1-9.88,59.23q-2.47,5.07-20.25,20.77-13.83,1.51-17.28-7.6-3.47-10.64,7.41-15.44t10.86-21.52c0-2.69-.17-6.5-.49-11.39s-.5-8.18-.5-9.88q-.49-16.69-7.91-35.43-7.9-15.69-15.33-31.39-8.91-14.69-27.69-29.87l-31.65-24.3A248.81,248.81,0,0,0,2841.08,269a232.86,232.86,0,0,0-43.52,4q-67.76,19.26-117.19,55.69-48,52.15-46.49,92.65a119.75,119.75,0,0,0-1,15.7q0,31.4,17.81,59.74,16.82,26.32,45.51,43.53,30.18,28.36,76.69,44a41.1,41.1,0,0,0,12.86,8.61c9.23,4,13.85,6.25,13.85,6.58q33.64,18.23,67.28,36.95,38.09,24.3,57.39,54.18,8.89,24.28,8.9,45,0,24.3-13.34,39-29.62,49.62-101.24,46.08-2-2-6.18-1.27c-2.8.5-4.86.41-6.17-.25q-14.34-5.07-28.15-9.63-16.8-6.06-26.67-14.17-19.26-6.59-20.25-26.83-.51-10.63,4.94-23.29,5.43-10.64,10.62-21.52t21.48-14.93q14.31,1.51,34.08,8.61,16.78,5.57,33.09,11.64,9.38,5.05,8.4,23.29-2.49,5.06-5.68,10.38a14.61,14.61,0,0,1-8.15,6.83q-5.92,0-22.23-4.55-13.33-3.55-22.72-2.54a3.49,3.49,0,0,0-1,2.54q0,3.52,7.41,7.58,21.74,9.13,48.41,9.12,34.56,0,56.3-14.68,13.34-11.65,7.9-35.43-17.77-32.93-60.75-58.73-36.55-20.76-72.6-41.52-14.82-6.57-29.14-13.67a167.81,167.81,0,0,1-27.66-17.21l-23.71-12.15q-8.88-3-20.74-13.67-13.83-12.66-19.76-16.2-28.16-24.3-36-52.65-8.9-13.17-14.82-49.62a44.19,44.19,0,0,1-2.47-14.68q0-8.1,3.95-23.29t4.45-22.53q.48-7.32,5.93-18,7.39-15.18,8.39-16.71a290.46,290.46,0,0,1,68.16-76.95q52.35-41,120.51-54.17,5.43-.49,31.61-2.53,19.76-1.51,32.1-1.52,24.2,0,41.49,5.57l40.5,12.66a220.69,220.69,0,0,1,68.16,46.57Q3054.67,324.18,3061.1,362.15Z"/><path class="cls-1" d="M3282.36,689.19q-40,16.71-72.11,16.71A113.08,113.08,0,0,1,3147,687.17q-8.4-1.51-20.74,6.07-15.32,9.12-23.71,10.13-6.42,2-16.3,1-17.78-2-22.72-15.2-1-9.6-2-18.73-2-11.64-8.4-17.21h-2a7.86,7.86,0,0,1-2,.51q-1,0,3.37-9.11a189.43,189.43,0,0,0,10.11-33.93q5.78-28.34,5.78-64.8,0-20.24-1.48-42,3.95-33.91,7.41-67.33,5.43-39,15.31-63.79-.49-14.17,8.39-32.4,11.86-24.31,13.34-29.87,26.18-72.4,81.49-105.81a161,161,0,0,1,39-5.06q27.15,0,45.44,11.13,28.15,33.42,28.15,82,0,56.2-43.71,147.32T3110,612.75q-2,3.56-2,60.25,2,3.54,5.43,3.54,4.45,0,12.35-5.06,23.22-30.39,47.91-30.38a42.41,42.41,0,0,1,9.38,1q4.93,5.07,8.9,25.82,3,17.22,16.29,21.26c4.61.35,9.22.51,13.83.51q27.66,0,56.31-13.16ZM3269,295.32q1-30.88-13.33-67.33-5-12.15-22.72-12.15a84.66,84.66,0,0,0-14.82,1.51q-45.45,21.78-64.21,79-11.36,22.29-33.58,96.19-5.45,39.5-10.87,79.48-5.92,47.09-5.92,81.52,0,11.13.49,22.27a7.25,7.25,0,0,0,6.91,10.13q29.15-24.81,61.25-66.83l53.34-71.89q24.2-60.75,28.15-72.91Q3267.54,331.78,3269,295.32Z"/><path class="cls-1" d="M3512,675.52q-22.21,10.14-57.78,15.7-30.63,4-61.25,8.61-56.29,35.94-91.86,35.94-19.77,0-33.59-10.63-11.37-8.62-11.36-22.28,0-22.27,25.19-41.51,27.66-20.75,66.68-20.76a165.93,165.93,0,0,1,25.68,2q9.38,2,18.52,16.45T3413,675a188.73,188.73,0,0,0,24.44,1.52q35.57,0,74.58-16.71Zm-154.1,16.21q-3.95-9.12-24.69-15.19-4-1-10.37-6.83T3312,663.38q-13.83,6.57-14.81,22.27,3,16.22,11.85,23.29,19.26,8.09,33.09,2.53Q3355.46,704.89,3357.92,691.73Z"/><path class="cls-1" d="M3630.55,693.24q-18.27,19.25-39.51,19.24-19.26,0-34.08-14.18-13.83-12.64-10.86-22.27a2.27,2.27,0,0,1,2.46-1.52q3,0,19.76,5.32t24.7,5.31q13.33,0,13.33-12.14,0-20.76-59.27-21.78a34.35,34.35,0,0,0-13.33,1.52q-.49,59.24-4.45,177.2-3,59.73-3.48,63.79-3.48,37.46-11.93,63.28-3,10.63-13.93,25.31-12.95,17.71-21.39,17.73-6,0-9-9.12-10.44-31.89-10.45-83.53,0-16.21,2.47-55.69,5.45-122.54,39-183.78c0-4.39.41-13,1.23-25.82s1.24-22.61,1.24-29.36q0-42.53-17.29-45.06c-2.64-.33-4-2.36-4-6.07q0-13.68,18.27-42.53t28.65-31.39q15.81-3.54,15.8,36.46,0,21.76-5.18,60.49t-5.19,40.76a142.05,142.05,0,0,1,13.34-9.62q10.86-6.07,29.14-6.08,41,0,62.23,21.27Q3664.63,656.29,3630.55,693.24ZM3499.67,758q-9.39,74.43-9.39,90.12a232,232,0,0,0,4,43.54q2.46,10.63,3.45,10.63Q3502.63,902.33,3499.67,758Z"/><path class="cls-2" d="M850,200c-110.46,0-200,89.54-200,200s89.54,200,200,200h200V200Z"/><path class="cls-1" d="M650,800v200H850c110.45,0,200-89.54,200-200S960.47,600,850,600H650Z"/><path class="cls-1" d="M600,400c0-110.46-89.55-200-200-200H200v800H600V800c0-110.46-89.55-200-200-200C510.47,600,600,510.46,600,400Z"/></svg>