<svg id="图层_1" data-name="图层 1" xmlns="http://www.w3.org/2000/svg" viewBox="0 0 1200 1200"><defs><style>.cls-1{fill:#040000;}.cls-2{fill:#de392e;}</style></defs><path class="cls-1" d="M483.65,973a72.83,72.83,0,0,1-14.95,10.91q-15.1,8.46-38.95,14.33-14.81,3.57-30.8,6.18A279.51,279.51,0,0,1,426.28,1024q33.66,27.51,48.61,55.35a1.83,1.83,0,0,1,.3,1q0,2.94-3.92,6.19c-1.91,1.62-3.68,2.44-5.29,2.44-.8,0-1.31-.27-1.51-.81q-14.64-26.83-45.89-52.7-22.35-18.38-41.67-28.14-12.69,1.31-26.27,2-12.24.64-10.72.65-14.66,0-14.65-7.65,0-5,7-10.08A34.46,34.46,0,0,1,343,986.77a31.93,31.93,0,0,1,7.26-.81,54.47,54.47,0,0,1,17.07,3.25A140,140,0,0,1,385,996.69q40.05-4.07,67.41-13.52,16.17-5.53,24.17-11.89a19.31,19.31,0,0,0,3.18-2.94,18.52,18.52,0,0,0,3.93-11.72,27.26,27.26,0,0,0-3.93-13.69q-13.29-23.13-40.94-34.38-23.26-9.28-53.48-9.28a171.34,171.34,0,0,0-19.79,1.14,215.73,215.73,0,0,0-76.6,22.16q-24.32,12.39-35,23.8-9.52,9.95-9.52,16.62a8.76,8.76,0,0,0,2.86,6.52,1.3,1.3,0,0,1,.46,1.14q0,2.61-3.25,5.63c-2.16,2-4.1,3-5.81,3a2.55,2.55,0,0,1-1.66-.49,11.84,11.84,0,0,1-3.78-9q0-9.45,11.33-22.49,15.24-17.43,43.18-31.93,52.08-26.88,103.42-26.89a156.22,156.22,0,0,1,43.93,6Q467.94,904,485.46,927q9.36,12.38,9.36,23.28Q494.82,961.95,483.65,973Zm-162.91,42.55q.6,3.09-4.23,7.15-3,2.61-4.83,2.61c-.8,0-1.31-.49-1.51-1.47a157.48,157.48,0,0,1-4.53-35.29A103.25,103.25,0,0,1,307,971.64q.45-1.95,3.47-4.87c2-2,3.73-3,5.14-3.26a1.69,1.69,0,0,1,1.51.41,1.64,1.64,0,0,1,.3,1.71,93.24,93.24,0,0,0-1.21,15.29Q316.21,995.88,320.74,1015.56Zm35.78-16.75a47.53,47.53,0,0,0-13.43-2.44,28.68,28.68,0,0,0-5.29.48l-.6.17c1.31,1.19,4.17,1.9,8.6,2.11h.46C349.68,999.13,353.1,999,356.52,998.81Z"/><path class="cls-1" d="M550.23,1019.56a65,65,0,0,1-17.67,2.5q-13.12,0-21.74-6-10.72,4.4-19,4.39a24.38,24.38,0,0,1-13.14-3.58q-2.12-1.3-2.11-7a26.89,26.89,0,0,1,17-24.89,41.32,41.32,0,0,1,15.75-3.25,27.92,27.92,0,0,1,12.6,2.76l2.55,4.72c.1,1.09.15,2.28.15,3.58v9.6q0,8.94,6.65,11.71a33.07,33.07,0,0,0,7.24.81,58.49,58.49,0,0,0,11.78-1.47c1.1-.21,1.66.67,1.66,2.67S551.33,1019.24,550.23,1019.56Zm-37.44-26.77q-1.66-4.39-9.67-4.39a21.74,21.74,0,0,0-8.6,6.5q-3.63,8.63-3.63,11.06a11.58,11.58,0,0,0,.46,3.09c.8,2.93,2.87,4.39,6.19,4.39a10.06,10.06,0,0,0,1.81-.16,10.45,10.45,0,0,0,5-5.2c.81-2.28,1.61-4.61,2.42-7,.2-1.19,1.25-2.46,3.17-3.82S512.79,994.41,512.79,992.79Z"/><path class="cls-1" d="M590,1030.36c-.35,1-1.94,2.93-4.75,5.85q-4.69,2.11-11.33-.32-4.68-4.23-4.68-12.69a94.57,94.57,0,0,1,1.06-11.22,2.7,2.7,0,0,0-2.57-2.44,48.44,48.44,0,0,1-11.77,2.11c-1.62,0-2.32-.32-2.12-1a44,44,0,0,0-2-4.55,12.18,12.18,0,0,1-1.21-4.72,8.17,8.17,0,0,1,.46-2.77c1.2-3.68,2.06-6.07,2.56-7.15q1.81-5,3.32-6.18a4.61,4.61,0,0,1,3.17-.33q2.12,1.47,2.27,8.13c.1,3.8,1.15,5.7,3.17,5.7a10.39,10.39,0,0,0,2.72-.49,11.14,11.14,0,0,1,6.19-2.12,6,6,0,0,1,3.32,1c1.51,1,2.26,2.66,2.26,5,0,.76-.07,1.87-.22,3.34s-.23,2.52-.23,3.17c-.51,4.23-.75,6.88-.75,8q0,6,3.32,8.78a3.74,3.74,0,0,0,2.86,1,15,15,0,0,0,1.82-.17,14.29,14.29,0,0,1,1.66-.16c1.3,0,2,.6,2,1.79A7.58,7.58,0,0,1,590,1030.36Z"/><path class="cls-1" d="M662.71,1014.1a5,5,0,0,1-3,4.22c-1.82.87-3.63,1.69-5.44,2.44q-17.06,4.23-27,4.23a45.31,45.31,0,0,1-11.18-1.3,40.17,40.17,0,0,1-15.25-7.32q-7.54-6-7.54-13.5a18.56,18.56,0,0,1,.9-5.61,24.07,24.07,0,0,1,3.47-6.42q2.26-3.09,4.38-6.18c2.12-.66,4.25-1.36,6.42-2.12a18,18,0,0,1,5.81-1.14,11.35,11.35,0,0,1,5.44,1.47A13.2,13.2,0,0,1,624.06,993q0,8-10,19.19,2.11,4.56,10.57,6.67a31.83,31.83,0,0,0,8.6,1.14q12.09,0,24.61-7.81Q661.8,1012.14,662.71,1014.1Zm-49.37-23.75c-.31-1.84-1.16-2.77-2.57-2.77-1.21,0-2.57,1.58-4.08,4.72q-.75,9.93,1.21,12.69c.3.11,1-.33,2.11-1.3A22.32,22.32,0,0,0,613.34,990.35Z"/><path class="cls-1" d="M786.81,909.35a53.82,53.82,0,0,1,1.51,12.85,63.24,63.24,0,0,1-3,19q-.75,1.63-6.19,6.67c-2.82.33-4.58-.49-5.28-2.44-.71-2.28,0-3.93,2.26-5s3.32-3.34,3.32-6.91q0-1.3-.15-3.66t-.15-3.18a35.21,35.21,0,0,0-2.42-11.38q-2.41-5-4.68-10.08a37.93,37.93,0,0,0-8.47-9.6l-9.67-7.81a73.13,73.13,0,0,0-34.32-8.45,67.4,67.4,0,0,0-13.3,1.3,108.45,108.45,0,0,0-35.83,17.89q-14.65,16.75-14.21,29.76a41.36,41.36,0,0,0-.3,5,36.84,36.84,0,0,0,5.45,19.2,42.33,42.33,0,0,0,13.91,14q9.22,9.12,23.44,14.15a12.61,12.61,0,0,0,3.93,2.77,31.48,31.48,0,0,1,4.24,2.11q10.27,5.86,20.56,11.87,11.64,7.82,17.55,17.41a44.28,44.28,0,0,1,2.72,14.47q0,7.81-4.08,12.53-9.06,15.93-31,14.8a1.93,1.93,0,0,0-1.89-.41,3,3,0,0,1-1.88-.08c-2.92-1.09-5.79-2.11-8.61-3.09a27.34,27.34,0,0,1-8.15-4.55q-5.89-2.11-6.19-8.62a17.81,17.81,0,0,1,1.51-7.49c1.1-2.27,2.19-4.58,3.24-6.91s3.25-3.93,6.57-4.8a44.56,44.56,0,0,1,10.42,2.77q5.13,1.79,10.11,3.74c1.91,1.08,2.77,3.58,2.57,7.48-.51,1.08-1.08,2.2-1.74,3.34a4.48,4.48,0,0,1-2.49,2.19,30.16,30.16,0,0,1-6.79-1.46,18.78,18.78,0,0,0-7-.82,1.17,1.17,0,0,0-.3.82c0,.75.76,1.57,2.27,2.44a36.29,36.29,0,0,0,14.79,2.93q10.58,0,17.21-4.72,4.08-3.75,2.42-11.39-5.43-10.57-18.57-18.86-11.18-6.68-22.19-13.34-4.53-2.11-8.91-4.39a51.27,51.27,0,0,1-8.46-5.53l-7.24-3.91a19.69,19.69,0,0,1-6.35-4.39,47,47,0,0,0-6-5.2q-8.61-7.82-11-16.92-2.71-4.23-4.53-15.94a14.93,14.93,0,0,1-.75-4.71A33.65,33.65,0,0,1,646,927.4a47.55,47.55,0,0,0,1.36-7.23,16.17,16.17,0,0,1,1.81-5.78c1.51-3.25,2.36-5,2.57-5.36a92.07,92.07,0,0,1,20.83-24.73,83.06,83.06,0,0,1,36.84-17.4q1.67-.17,9.66-.81,6-.5,9.82-.49a39.84,39.84,0,0,1,12.68,1.79l12.38,4.07a67.2,67.2,0,0,1,20.83,15Q784.84,897.16,786.81,909.35Z"/><path class="cls-1" d="M854.45,1014.42q-12.24,5.37-22.05,5.37a33.4,33.4,0,0,1-19.32-6c-1.71-.33-3.83.33-6.34,2q-4.68,2.92-7.25,3.26a12,12,0,0,1-5,.32q-5.43-.64-7-4.88-.3-3.09-.6-6a9.23,9.23,0,0,0-2.57-5.53h-.6a2.39,2.39,0,0,1-.61.17c-.2,0,.15-1,1-2.93a64.24,64.24,0,0,0,3.09-10.9,110.75,110.75,0,0,0,1.76-20.82q0-6.5-.45-13.5,1.2-10.89,2.27-21.63a93,93,0,0,1,4.68-20.49,23.22,23.22,0,0,1,2.56-10.41,84.87,84.87,0,0,0,4.08-9.6q8-23.25,24.91-34a47.1,47.1,0,0,1,11.93-1.63q8.3,0,13.89,3.58,8.59,10.74,8.6,26.35,0,18.06-13.36,47.33t-46.43,55.46q-.6,1.14-.6,19.36a1.83,1.83,0,0,0,1.66,1.13,7.71,7.71,0,0,0,3.78-1.62q7.1-9.76,14.64-9.76a12.68,12.68,0,0,1,2.87.32c1,1.09,1.91,3.86,2.72,8.3.6,3.69,2.26,6,5,6.83,1.41.11,2.82.16,4.23.16a39.26,39.26,0,0,0,17.21-4.23Zm-4.08-126.54q.3-9.92-4.08-21.63c-1-2.6-3.32-3.9-6.94-3.9a24.21,24.21,0,0,0-4.53.49q-13.89,7-19.63,25.37-3.47,7.15-10.26,30.9-1.66,12.69-3.33,25.54a226,226,0,0,0-1.81,26.18c0,2.39.05,4.77.15,7.16a2.4,2.4,0,0,0,.23,2.27,2.15,2.15,0,0,0,1.89,1,137,137,0,0,0,18.72-21.47l16.3-23.09q7.41-19.51,8.61-23.43A99,99,0,0,0,850.37,887.88Z"/><path class="cls-1" d="M924.65,1010a66.28,66.28,0,0,1-17.66,5q-9.36,1.3-18.72,2.77-17.22,11.53-28.09,11.54a15.77,15.77,0,0,1-10.26-3.41,8.74,8.74,0,0,1-3.48-7.16q0-7.15,7.71-13.33,8.45-6.68,20.38-6.67a48.43,48.43,0,0,1,7.85.65q2.86.64,5.66,5.28c1.86,3.09,4,4.8,6.34,5.13a52.72,52.72,0,0,0,30.27-4.88Zm-47.1,5.2q-1.21-2.93-7.55-4.88a8.37,8.37,0,0,1-3.17-2.19,6.51,6.51,0,0,0-3.32-2,7.93,7.93,0,0,0-4.53,7.15q.9,5.21,3.62,7.48,5.89,2.61,10.12.82A8.63,8.63,0,0,0,877.55,1015.23Z"/><path class="cls-1" d="M960.89,1015.72q-5.6,6.18-12.08,6.18a14.3,14.3,0,0,1-10.42-4.55q-4.23-4.07-3.32-7.16a.7.7,0,0,1,.75-.49,34.57,34.57,0,0,1,6,1.71,27.13,27.13,0,0,0,7.55,1.71q4.08,0,4.08-3.9,0-6.68-18.12-7a10.1,10.1,0,0,0-4.08.49q-.15,19-1.35,56.93-.91,19.18-1.07,20.49a98.76,98.76,0,0,1-3.65,20.33,26.9,26.9,0,0,1-4.26,8.13q-3.94,5.7-6.53,5.7c-1.22,0-2.13-1-2.74-2.93q-3.2-10.24-3.19-26.84,0-5.2.75-17.89,1.66-39.36,11.93-59c0-1.41.12-4.17.38-8.3s.37-7.26.37-9.43q0-13.67-5.28-14.47c-.81-.11-1.21-.76-1.21-2q0-4.38,5.59-13.66t8.75-10.08q4.85-1.14,4.84,11.71A163.37,163.37,0,0,1,933,980.83q-1.59,12.45-1.59,13.1a41.41,41.41,0,0,1,4.08-3.09,17.52,17.52,0,0,1,8.91-2q12.52,0,19,6.83Q971.29,1003.85,960.89,1015.72Zm-40,20.82q-2.88,23.91-2.87,29a78,78,0,0,0,1.21,14c.5,2.28.85,3.41,1,3.41Q921.79,1082.89,920.88,1036.54Z"/><path class="cls-2" d="M790.32,129.25a171.43,171.43,0,0,0,0,342.86H961.75V129.25Z"/><path class="cls-1" d="M618.89,643.54V815H790.32a171.43,171.43,0,1,0,0-342.85H618.89Z"/><path class="cls-1" d="M576,300.68A171.43,171.43,0,0,0,404.6,129.25H233.17V815H576V643.54A171.43,171.43,0,0,0,404.6,472.11,171.43,171.43,0,0,0,576,300.68Z"/></svg>